<svg xmlns="http://www.w3.org/2000/svg" xmlns:xlink="http://www.w3.org/1999/xlink" width="1080" zoomAndPan="magnify" viewBox="0 0 810 809.999993" height="1080" preserveAspectRatio="xMidYMid meet" version="1.0"><defs><clipPath id="d20f53ada0"><path d="M 17 6 L 793.394531 6 L 793.394531 792 L 17 792 Z M 17 6 " clip-rule="nonzero"/></clipPath></defs><path fill="#ffffff" d="M 752.550781 388.492188 C 752.550781 394.152344 752.410156 399.8125 752.132812 405.46875 C 751.855469 411.121094 751.4375 416.765625 750.882812 422.402344 C 750.328125 428.035156 749.636719 433.652344 748.804688 439.253906 C 747.972656 444.851562 747.007812 450.429688 745.902344 455.984375 C 744.796875 461.535156 743.558594 467.058594 742.183594 472.550781 C 740.804688 478.042969 739.296875 483.496094 737.652344 488.914062 C 736.011719 494.332031 734.234375 499.707031 732.328125 505.035156 C 730.417969 510.367188 728.382812 515.648438 726.214844 520.878906 C 724.050781 526.109375 721.757812 531.285156 719.335938 536.402344 C 716.914062 541.519531 714.371094 546.574219 711.699219 551.570312 C 709.03125 556.5625 706.242188 561.484375 703.332031 566.34375 C 700.421875 571.199219 697.394531 575.980469 694.246094 580.6875 C 691.101562 585.394531 687.84375 590.023438 684.472656 594.570312 C 681.097656 599.117188 677.617188 603.578125 674.023438 607.957031 C 670.433594 612.332031 666.734375 616.617188 662.933594 620.8125 C 659.132812 625.007812 655.230469 629.105469 651.226562 633.109375 C 647.222656 637.113281 643.121094 641.015625 638.929688 644.820312 C 634.734375 648.621094 630.449219 652.316406 626.070312 655.910156 C 621.695312 659.5 617.230469 662.984375 612.683594 666.355469 C 608.136719 669.726562 603.511719 672.988281 598.800781 676.132812 C 594.09375 679.277344 589.3125 682.304688 584.457031 685.21875 C 579.601562 688.128906 574.675781 690.917969 569.683594 693.585938 C 564.691406 696.253906 559.632812 698.800781 554.515625 701.21875 C 549.398438 703.640625 544.222656 705.933594 538.992188 708.101562 C 533.761719 710.269531 528.484375 712.304688 523.152344 714.210938 C 517.820312 716.121094 512.445312 717.894531 507.027344 719.539062 C 501.609375 721.183594 496.15625 722.691406 490.664062 724.066406 C 485.171875 725.441406 479.648438 726.683594 474.097656 727.789062 C 468.542969 728.890625 462.96875 729.859375 457.367188 730.691406 C 451.765625 731.519531 446.148438 732.214844 440.515625 732.769531 C 434.882812 733.324219 429.238281 733.738281 423.582031 734.019531 C 417.925781 734.296875 412.269531 734.433594 406.609375 734.433594 C 400.945312 734.433594 395.289062 734.296875 389.632812 734.019531 C 383.976562 733.738281 378.332031 733.324219 372.699219 732.769531 C 367.066406 732.214844 361.449219 731.519531 355.847656 730.691406 C 350.246094 729.859375 344.671875 728.890625 339.117188 727.789062 C 333.566406 726.683594 328.042969 725.441406 322.550781 724.066406 C 317.058594 722.691406 311.605469 721.183594 306.1875 719.539062 C 300.769531 717.894531 295.394531 716.121094 290.0625 714.210938 C 284.734375 712.304688 279.453125 710.269531 274.222656 708.101562 C 268.992188 705.933594 263.816406 703.640625 258.699219 701.21875 C 253.582031 698.800781 248.523438 696.253906 243.53125 693.585938 C 238.539062 690.917969 233.613281 688.128906 228.757812 685.21875 C 223.902344 682.304688 219.121094 679.277344 214.414062 676.132812 C 209.703125 672.988281 205.078125 669.726562 200.53125 666.355469 C 195.984375 662.984375 191.519531 659.5 187.144531 655.910156 C 182.769531 652.316406 178.480469 648.621094 174.285156 644.820312 C 170.09375 641.015625 165.992188 637.113281 161.988281 633.109375 C 157.984375 629.105469 154.082031 625.007812 150.28125 620.8125 C 146.480469 616.617188 142.78125 612.332031 139.191406 607.957031 C 135.597656 603.578125 132.117188 599.117188 128.746094 594.570312 C 125.371094 590.023438 122.113281 585.394531 118.96875 580.6875 C 115.820312 575.980469 112.792969 571.199219 109.882812 566.34375 C 106.972656 561.484375 104.183594 556.5625 101.515625 551.570312 C 98.84375 546.574219 96.300781 541.519531 93.878906 536.402344 C 91.457031 531.285156 89.164062 526.109375 87 520.878906 C 84.832031 515.648438 82.796875 510.367188 80.886719 505.035156 C 78.980469 499.707031 77.203125 494.332031 75.5625 488.914062 C 73.917969 483.496094 72.410156 478.042969 71.03125 472.550781 C 69.65625 467.058594 68.417969 461.535156 67.3125 455.984375 C 66.207031 450.429688 65.242188 444.851562 64.410156 439.253906 C 63.578125 433.652344 62.886719 428.035156 62.332031 422.402344 C 61.777344 416.765625 61.359375 411.121094 61.082031 405.46875 C 60.804688 399.8125 60.664062 394.152344 60.664062 388.492188 C 60.664062 382.832031 60.804688 377.171875 61.082031 371.519531 C 61.359375 365.863281 61.777344 360.21875 62.332031 354.585938 C 62.886719 348.949219 63.578125 343.332031 64.410156 337.730469 C 65.242188 332.132812 66.207031 326.554688 67.3125 321.003906 C 68.417969 315.449219 69.65625 309.925781 71.03125 304.433594 C 72.410156 298.945312 73.917969 293.488281 75.5625 288.070312 C 77.203125 282.652344 78.980469 277.277344 80.886719 271.949219 C 82.796875 266.617188 84.832031 261.335938 87 256.105469 C 89.164062 250.875 91.457031 245.703125 93.878906 240.582031 C 96.300781 235.464844 98.84375 230.410156 101.515625 225.417969 C 104.183594 220.421875 106.972656 215.5 109.882812 210.644531 C 112.792969 205.785156 115.820312 201.003906 118.96875 196.296875 C 122.113281 191.589844 125.371094 186.960938 128.746094 182.414062 C 132.117188 177.867188 135.597656 173.40625 139.191406 169.027344 C 142.78125 164.652344 146.480469 160.367188 150.28125 156.171875 C 154.082031 151.976562 157.984375 147.878906 161.988281 143.875 C 165.992188 139.871094 170.09375 135.96875 174.285156 132.167969 C 178.480469 128.363281 182.769531 124.667969 187.144531 121.074219 C 191.519531 117.484375 195.984375 114 200.53125 110.628906 C 205.078125 107.257812 209.703125 103.996094 214.414062 100.851562 C 219.121094 97.707031 223.902344 94.679688 228.757812 91.769531 C 233.613281 88.859375 238.539062 86.066406 243.53125 83.398438 C 248.523438 80.730469 253.582031 78.183594 258.699219 75.765625 C 263.816406 73.34375 268.992188 71.050781 274.222656 68.882812 C 279.453125 66.71875 284.734375 64.679688 290.0625 62.773438 C 295.394531 60.867188 300.769531 59.089844 306.1875 57.445312 C 311.605469 55.804688 317.058594 54.292969 322.550781 52.917969 C 328.042969 51.542969 333.566406 50.300781 339.117188 49.199219 C 344.671875 48.09375 350.246094 47.125 355.847656 46.292969 C 361.449219 45.464844 367.066406 44.769531 372.699219 44.214844 C 378.332031 43.660156 383.976562 43.246094 389.632812 42.96875 C 395.289062 42.6875 400.945312 42.550781 406.609375 42.550781 C 412.269531 42.550781 417.925781 42.6875 423.582031 42.96875 C 429.238281 43.246094 434.882812 43.660156 440.515625 44.214844 C 446.148438 44.769531 451.765625 45.464844 457.367188 46.292969 C 462.96875 47.125 468.542969 48.09375 474.097656 49.199219 C 479.648438 50.300781 485.171875 51.542969 490.664062 52.917969 C 496.15625 54.292969 501.613281 55.804688 507.027344 57.445312 C 512.445312 59.089844 517.820312 60.867188 523.152344 62.773438 C 528.484375 64.679688 533.761719 66.71875 538.992188 68.882812 C 544.222656 71.050781 549.398438 73.34375 554.515625 75.765625 C 559.632812 78.183594 564.691406 80.730469 569.683594 83.398438 C 574.675781 86.066406 579.601562 88.859375 584.457031 91.769531 C 589.3125 94.679688 594.09375 97.707031 598.800781 100.851562 C 603.511719 103.996094 608.136719 107.257812 612.683594 110.628906 C 617.230469 114 621.695312 117.484375 626.070312 121.074219 C 630.449219 124.667969 634.734375 128.363281 638.929688 132.167969 C 643.121094 135.96875 647.222656 139.871094 651.226562 143.875 C 655.230469 147.878906 659.132812 151.976562 662.933594 156.171875 C 666.734375 160.367188 670.433594 164.652344 674.023438 169.027344 C 677.617188 173.40625 681.097656 177.867188 684.46875 182.414062 C 687.84375 186.960938 691.101562 191.589844 694.246094 196.296875 C 697.394531 201.003906 700.421875 205.785156 703.332031 210.644531 C 706.242188 215.5 709.03125 220.421875 711.699219 225.417969 C 714.371094 230.410156 716.914062 235.464844 719.335938 240.582031 C 721.757812 245.703125 724.050781 250.875 726.214844 256.105469 C 728.382812 261.335938 730.417969 266.617188 732.328125 271.949219 C 734.234375 277.277344 736.011719 282.652344 737.652344 288.070312 C 739.296875 293.488281 740.804688 298.945312 742.183594 304.433594 C 743.558594 309.925781 744.796875 315.449219 745.902344 321.003906 C 747.007812 326.554688 747.972656 332.132812 748.804688 337.730469 C 749.636719 343.332031 750.328125 348.949219 750.882812 354.585938 C 751.4375 360.21875 751.855469 365.863281 752.132812 371.519531 C 752.410156 377.171875 752.550781 382.832031 752.550781 388.492188 Z M 752.550781 388.492188 " fill-opacity="1" fill-rule="nonzero"/><g clip-path="url(#d20f53ada0)"><path fill="#bfbdbc" d="M 697.925781 140.765625 C 694.644531 136.933594 691.289062 133.164062 687.859375 129.464844 C 684.429688 125.761719 680.929688 122.128906 677.359375 118.566406 C 673.785156 115 670.144531 111.507812 666.433594 108.089844 C 662.722656 104.667969 658.949219 101.320312 655.109375 98.050781 C 651.265625 94.777344 647.363281 91.582031 643.394531 88.464844 C 639.429688 85.34375 635.402344 82.304688 631.316406 79.34375 C 627.226562 76.382812 623.085938 73.503906 618.886719 70.707031 C 614.6875 67.910156 610.433594 65.195312 606.125 62.566406 C 601.820312 59.9375 597.464844 57.390625 593.054688 54.933594 C 588.648438 52.472656 584.195312 50.101562 579.695312 47.820312 C 575.195312 45.535156 570.652344 43.339844 566.066406 41.234375 C 561.480469 39.128906 556.855469 37.117188 552.191406 35.191406 C 547.527344 33.269531 542.824219 31.4375 538.085938 29.699219 C 533.351562 27.960938 528.582031 26.316406 523.777344 24.765625 C 518.976562 23.214844 514.144531 21.761719 509.285156 20.398438 C 504.425781 19.039062 499.542969 17.773438 494.632812 16.605469 C 489.726562 15.4375 484.796875 14.363281 479.84375 13.390625 C 474.894531 12.414062 469.925781 11.539062 464.9375 10.757812 C 459.953125 9.980469 454.953125 9.296875 449.941406 8.714844 C 444.929688 8.132812 439.90625 7.648438 434.875 7.261719 C 429.84375 6.878906 424.808594 6.589844 419.765625 6.402344 C 414.722656 6.214844 409.679688 6.128906 404.632812 6.140625 C 399.585938 6.152344 394.542969 6.261719 389.5 6.46875 C 384.457031 6.679688 379.421875 6.988281 374.394531 7.394531 C 369.363281 7.804688 364.34375 8.308594 359.332031 8.914062 C 354.324219 9.519531 349.328125 10.222656 344.347656 11.023438 C 339.363281 11.824219 334.398438 12.722656 329.453125 13.71875 C 324.503906 14.714844 319.582031 15.808594 314.675781 17 C 309.773438 18.191406 304.894531 19.476562 300.042969 20.859375 C 295.1875 22.242188 290.363281 23.71875 285.570312 25.289062 C 280.773438 26.859375 276.011719 28.527344 271.28125 30.285156 C 266.550781 32.042969 261.859375 33.894531 257.203125 35.839844 C 248.738281 39.402344 240.410156 43.253906 232.21875 47.402344 C 224.023438 51.550781 215.988281 55.984375 208.109375 60.695312 C 200.230469 65.410156 192.523438 70.398438 184.996094 75.65625 C 177.46875 80.914062 170.132812 86.429688 162.996094 92.203125 C 155.855469 97.980469 148.925781 104 142.210938 110.261719 C 135.496094 116.523438 129.011719 123.015625 122.753906 129.738281 C 116.496094 136.457031 110.484375 143.390625 104.714844 150.535156 C 98.945312 157.679688 93.4375 165.019531 88.183594 172.550781 C 79.75 184.648438 72 197.167969 64.929688 210.109375 C 57.566406 223.703125 51.023438 237.679688 45.304688 252.039062 C 39.582031 266.402344 34.722656 281.046875 30.722656 295.980469 C 26.726562 310.914062 23.613281 326.027344 21.390625 341.324219 C 19.167969 356.625 17.851562 372 17.4375 387.453125 C 17.4375 391.25 17.125 395.046875 17.125 398.898438 C 17.101562 404.351562 17.195312 409.804688 17.40625 415.253906 C 17.613281 420.707031 17.933594 426.148438 18.367188 431.585938 C 18.804688 437.023438 19.351562 442.449219 20.011719 447.863281 C 20.675781 453.28125 21.449219 458.679688 22.335938 464.058594 C 23.222656 469.441406 24.21875 474.804688 25.332031 480.144531 C 26.441406 485.484375 27.664062 490.800781 28.996094 496.089844 C 30.328125 501.378906 31.769531 506.636719 33.320312 511.867188 C 34.875 517.097656 36.535156 522.292969 38.304688 527.453125 C 40.070312 532.609375 41.949219 537.730469 43.929688 542.8125 C 45.914062 547.894531 48 552.933594 50.195312 557.929688 C 52.386719 562.921875 54.683594 567.867188 57.082031 572.769531 C 59.480469 577.667969 61.984375 582.511719 64.585938 587.308594 C 67.1875 592.101562 69.886719 596.839844 72.6875 601.519531 C 75.484375 606.203125 78.382812 610.824219 81.375 615.382812 C 84.367188 619.945312 87.453125 624.441406 90.632812 628.871094 C 93.8125 633.304688 97.085938 637.667969 100.449219 641.960938 C 103.808594 646.257812 107.261719 650.480469 110.800781 654.632812 C 114.335938 658.785156 117.960938 662.859375 121.671875 666.859375 C 125.378906 670.859375 129.171875 674.777344 133.042969 678.621094 C 136.914062 682.460938 140.867188 686.222656 144.894531 689.898438 C 148.925781 693.574219 153.03125 697.164062 157.207031 700.671875 C 161.386719 704.175781 165.640625 707.59375 169.960938 710.921875 C 174.28125 714.25 178.671875 717.484375 183.128906 720.628906 C 187.585938 723.773438 192.105469 726.824219 196.691406 729.78125 C 201.277344 732.734375 205.921875 735.59375 210.625 738.355469 C 215.328125 741.117188 220.085938 743.78125 224.902344 746.34375 C 229.71875 748.910156 234.582031 751.371094 239.5 753.730469 C 244.417969 756.089844 249.382812 758.347656 254.394531 760.5 C 259.40625 762.652344 264.460938 764.699219 269.558594 766.640625 C 274.65625 768.582031 279.792969 770.417969 284.964844 772.144531 C 290.140625 773.875 295.347656 775.492188 300.589844 777 C 305.832031 778.511719 311.101562 779.910156 316.402344 781.203125 C 345.667969 788.132812 375.335938 791.601562 405.410156 791.605469 C 619.84375 791.605469 793.699219 615.773438 793.699219 398.84375 C 793.722656 387.121094 793.21875 375.417969 792.195312 363.734375 C 791.171875 352.054688 789.628906 340.445312 787.570312 328.902344 C 785.507812 317.359375 782.9375 305.929688 779.851562 294.617188 C 776.769531 283.304688 773.191406 272.152344 769.109375 261.160156 C 765.03125 250.167969 760.46875 239.378906 755.425781 228.792969 C 750.382812 218.207031 744.875 207.871094 738.910156 197.777344 C 732.941406 187.683594 726.535156 177.875 719.691406 168.355469 C 712.847656 158.835938 705.59375 149.640625 697.925781 140.765625 Z M 549.5625 439.835938 L 452.699219 439.835938 L 452.699219 539.5625 L 352.972656 539.5625 L 352.972656 439.835938 L 256.109375 439.835938 L 256.109375 342.402344 L 352.972656 342.402344 L 352.972656 242.675781 L 452.699219 242.675781 L 452.699219 342.402344 L 549.5625 342.402344 Z M 549.5625 439.835938 " fill-opacity="1" fill-rule="nonzero"/></g></svg>