<svg xmlns="http://www.w3.org/2000/svg" xmlns:xlink="http://www.w3.org/1999/xlink" width="1080" zoomAndPan="magnify" viewBox="0 0 810 809.999993" height="1080" preserveAspectRatio="xMidYMid meet" version="1.0"><defs><clipPath id="a6a79ccbe2"><path d="M 1 2 L 809 2 L 809 809.972656 L 1 809.972656 Z M 1 2 " clip-rule="nonzero"/></clipPath></defs><g clip-path="url(#a6a79ccbe2)"><path fill="#1b8aca" d="M 804.582031 786.902344 C 809.839844 792.160156 809.839844 800.683594 804.582031 805.941406 C 801.953125 808.570312 798.503906 809.886719 795.058594 809.886719 C 791.617188 809.886719 788.167969 808.570312 785.539062 805.941406 L 404.945312 425.347656 L 24.351562 805.941406 C 21.722656 808.570312 18.277344 809.886719 14.832031 809.886719 C 11.382812 809.886719 7.9375 808.570312 5.308594 805.941406 C 0.0507812 800.683594 0.0507812 792.160156 5.308594 786.902344 L 385.90625 406.308594 L 5.308594 25.710938 C 0.0507812 20.453125 0.0507812 11.929688 5.308594 6.671875 C 10.566406 1.414062 19.09375 1.414062 24.351562 6.671875 L 404.945312 387.265625 L 785.539062 6.671875 C 790.796875 1.414062 799.320312 1.414062 804.582031 6.671875 C 809.839844 11.929688 809.839844 20.453125 804.582031 25.710938 L 423.984375 406.308594 Z M 804.582031 786.902344 " fill-opacity="1" fill-rule="nonzero"/></g></svg>