<svg xmlns="http://www.w3.org/2000/svg" xmlns:xlink="http://www.w3.org/1999/xlink" width="1080" zoomAndPan="magnify" viewBox="0 0 810 809.999993" height="1080" preserveAspectRatio="xMidYMid meet" version="1.0"><defs><clipPath id="5c0b1e2966"><path d="M 20.074219 38 L 796.324219 38 L 796.324219 776.777344 L 20.074219 776.777344 Z M 20.074219 38 " clip-rule="nonzero"/></clipPath></defs><g clip-path="url(#5c0b1e2966)"><path fill="#ffc30f" d="M 789.785156 334.605469 L 615.566406 504.511719 C 611.933594 508.050781 610.285156 513.144531 611.136719 518.152344 L 652.269531 758.066406 C 654.425781 770.640625 641.222656 780.25 629.933594 774.304688 L 414.582031 661.023438 C 410.097656 658.664062 404.742188 658.664062 400.257812 661.023438 L 184.902344 774.304688 C 173.605469 780.238281 160.414062 770.640625 162.5625 758.066406 L 203.703125 518.152344 C 204.554688 513.144531 202.90625 508.050781 199.273438 504.511719 L 25.027344 334.605469 C 15.898438 325.691406 20.929688 310.164062 33.558594 308.332031 L 274.332031 273.332031 C 279.34375 272.609375 283.683594 269.449219 285.925781 264.902344 L 393.601562 46.625 C 399.25 35.171875 415.574219 35.171875 421.222656 46.625 L 528.894531 264.902344 C 531.136719 269.449219 535.480469 272.59375 540.492188 273.332031 L 781.269531 308.332031 C 793.898438 310.164062 798.945312 325.691406 789.796875 334.605469 Z M 1768.058594 308.332031 L 1527.28125 273.332031 C 1522.269531 272.609375 1517.929688 269.449219 1515.6875 264.902344 L 1408.027344 46.625 C 1402.375 35.171875 1386.058594 35.171875 1380.402344 46.625 L 1272.726562 264.902344 C 1270.484375 269.449219 1266.152344 272.59375 1261.132812 273.332031 L 1020.359375 308.332031 C 1007.730469 310.164062 1002.6875 325.691406 1011.835938 334.605469 L 1186.050781 504.511719 C 1189.675781 508.050781 1191.332031 513.144531 1190.472656 518.152344 L 1149.339844 758.066406 C 1147.1875 770.640625 1160.394531 780.25 1171.679688 774.304688 L 1387.03125 661.023438 C 1391.511719 658.664062 1396.871094 658.664062 1401.359375 661.023438 L 1616.710938 774.304688 C 1628.011719 780.238281 1641.203125 770.640625 1639.046875 758.066406 L 1597.914062 518.152344 C 1597.054688 513.144531 1598.707031 508.050781 1602.335938 504.511719 L 1776.554688 334.605469 C 1785.691406 325.691406 1780.660156 310.164062 1768.027344 308.332031 Z M 2754.875 308.332031 L 2514.101562 273.332031 C 2509.089844 272.609375 2504.75 269.449219 2502.507812 264.902344 L 2394.832031 46.625 C 2389.175781 35.171875 2372.859375 35.171875 2367.210938 46.625 L 2259.535156 264.902344 C 2257.292969 269.449219 2252.953125 272.59375 2247.941406 273.332031 L 2007.164062 308.332031 C 1994.53125 310.164062 1989.488281 325.691406 1998.636719 334.605469 L 2172.855469 504.511719 C 2176.484375 508.050781 2178.136719 513.144531 2177.28125 518.152344 L 2136.144531 758.066406 C 2133.992188 770.640625 2147.195312 780.25 2158.480469 774.304688 L 2373.839844 661.023438 C 2378.320312 658.664062 2383.675781 658.664062 2388.160156 661.023438 L 2603.511719 774.304688 C 2614.816406 780.238281 2628.003906 770.640625 2625.851562 758.066406 L 2584.71875 518.152344 C 2583.859375 513.144531 2585.515625 508.050781 2589.144531 504.511719 L 2763.363281 334.605469 C 2772.492188 325.691406 2767.460938 310.164062 2754.832031 308.332031 Z M 3741.695312 308.332031 L 3500.921875 273.332031 C 3495.902344 272.609375 3491.570312 269.449219 3489.328125 264.902344 L 3381.652344 46.625 C 3375.996094 35.171875 3359.679688 35.171875 3354.03125 46.625 L 3246.351562 264.902344 C 3244.109375 269.449219 3239.773438 272.59375 3234.753906 273.332031 L 2993.984375 308.332031 C 2981.355469 310.164062 2976.308594 325.691406 2985.457031 334.605469 L 3159.675781 504.511719 C 3163.300781 508.050781 3164.957031 513.144531 3164.097656 518.152344 L 3122.964844 758.066406 C 3120.808594 770.640625 3134.015625 780.25 3145.300781 774.304688 L 3360.652344 661.023438 C 3365.144531 658.664062 3370.5 658.664062 3374.980469 661.023438 L 3590.332031 774.304688 C 3601.636719 780.238281 3614.828125 770.640625 3612.671875 758.066406 L 3571.539062 518.152344 C 3570.679688 513.144531 3572.335938 508.050781 3575.960938 504.511719 L 3750.175781 334.605469 C 3759.3125 325.691406 3754.28125 310.164062 3741.652344 308.332031 Z M 4737.042969 334.605469 C 4746.175781 325.691406 4741.144531 310.164062 4728.515625 308.332031 L 4487.742188 273.332031 C 4482.722656 272.609375 4478.390625 269.449219 4476.140625 264.902344 L 4368.464844 46.625 C 4362.816406 35.171875 4346.5 35.171875 4340.847656 46.625 L 4233.171875 264.902344 C 4230.929688 269.449219 4226.589844 272.59375 4221.574219 273.332031 L 3980.804688 308.332031 C 3968.175781 310.164062 3963.125 325.691406 3972.273438 334.605469 L 4146.488281 504.511719 C 4150.121094 508.050781 4151.769531 513.144531 4150.917969 518.152344 L 4109.785156 758.066406 C 4107.628906 770.640625 4120.832031 780.25 4132.121094 774.304688 L 4347.472656 661.023438 C 4351.957031 658.664062 4357.3125 658.664062 4361.796875 661.023438 L 4577.152344 774.304688 C 4588.449219 780.238281 4601.640625 770.640625 4599.492188 758.066406 L 4558.351562 518.152344 C 4557.5 513.144531 4559.148438 508.050781 4562.78125 504.511719 L 4736.996094 334.605469 Z M 4737.042969 334.605469 " fill-opacity="1" fill-rule="nonzero"/></g></svg>