<svg xmlns="http://www.w3.org/2000/svg" xmlns:xlink="http://www.w3.org/1999/xlink" width="1080" zoomAndPan="magnify" viewBox="0 0 810 809.999993" height="1080" preserveAspectRatio="xMidYMid meet" version="1.0"><defs><clipPath id="2c92e9655f"><path d="M 22.875 22.875 L 777.375 22.875 L 777.375 777.375 L 22.875 777.375 Z M 22.875 22.875 " clip-rule="nonzero"/></clipPath></defs><g clip-path="url(#2c92e9655f)"><path fill="#bfbdbc" d="M 777.371094 400.128906 C 777.371094 608.472656 608.472656 777.371094 400.128906 777.371094 C 191.785156 777.371094 22.890625 608.472656 22.890625 400.128906 C 22.890625 191.78125 191.785156 22.886719 400.128906 22.886719 C 608.472656 22.886719 777.371094 191.78125 777.371094 400.128906 " fill-opacity="1" fill-rule="nonzero"/></g><path fill="#ffffff" d="M 534.136719 280.875 C 534.136719 355.148438 473.917969 415.359375 399.644531 415.359375 C 325.371094 415.359375 265.15625 355.148438 265.15625 280.875 C 265.15625 206.597656 325.371094 146.386719 399.644531 146.386719 C 473.917969 146.386719 534.136719 206.597656 534.136719 280.875 " fill-opacity="1" fill-rule="nonzero"/><path fill="#ffffff" d="M 399.644531 759.460938 C 494.8125 759.460938 581.734375 724.207031 648.101562 666.0625 C 627.5 531.539062 566.839844 438.179688 399.644531 438.179688 C 237.148438 438.179688 174.25 531.933594 152.152344 666.921875 C 218.398438 724.558594 304.941406 759.460938 399.644531 759.460938 " fill-opacity="1" fill-rule="nonzero"/></svg>