<svg xmlns="http://www.w3.org/2000/svg" xmlns:xlink="http://www.w3.org/1999/xlink" width="1080" zoomAndPan="magnify" viewBox="0 0 810 809.999993" height="1080" preserveAspectRatio="xMidYMid meet" version="1.0"><defs><clipPath id="e523ecd290"><path d="M 29.242188 139.230469 L 383 139.230469 L 383 710.730469 L 29.242188 710.730469 Z M 29.242188 139.230469 " clip-rule="nonzero"/></clipPath><clipPath id="c598efbaf9"><path d="M 418 139.230469 L 780.742188 139.230469 L 780.742188 710.730469 L 418 710.730469 Z M 418 139.230469 " clip-rule="nonzero"/></clipPath></defs><g clip-path="url(#e523ecd290)"><path fill="#318ba2" d="M 223.707031 383.832031 C 188.160156 383.832031 155.449219 395.683594 129.011719 415.421875 C 131.613281 333.03125 195.261719 250.605469 320.855469 168.167969 L 302.21875 139.230469 C 120.242188 252.363281 29.242188 376.53125 29.242188 511.707031 C 29.242188 573.78125 46.121094 622.425781 79.910156 657.566406 C 113.671875 692.773438 156.425781 710.332031 208.121094 710.332031 C 259.847656 710.332031 301.527344 696.210938 333.246094 667.921875 C 364.945312 639.667969 380.816406 605.492188 380.816406 565.507812 C 380.816406 565.058594 380.734375 564.726562 380.734375 564.246094 C 381.703125 557.15625 382.386719 549.988281 382.386719 542.582031 C 382.386719 454.933594 311.316406 383.832031 223.707031 383.832031 Z M 223.707031 383.832031 " fill-opacity="1" fill-rule="nonzero"/></g><g clip-path="url(#c598efbaf9)"><path fill="#318ba2" d="M 736.75 652.195312 C 738.800781 649.820312 741.289062 647.558594 743.175781 645.074219 C 766.546875 617.410156 780.742188 581.699219 780.742188 542.589844 C 780.742188 454.9375 709.6875 383.816406 622.078125 383.816406 C 581.949219 383.816406 545.417969 398.84375 517.460938 423.445312 C 517.460938 422.46875 517.304688 421.640625 517.304688 420.632812 C 517.304688 336.496094 581.398438 252.3125 709.640625 168.152344 L 691.019531 139.230469 C 509.023438 252.363281 418.023438 376.53125 418.023438 511.734375 C 418.023438 573.8125 434.902344 622.449219 468.703125 657.589844 C 502.460938 692.796875 545.207031 710.378906 596.902344 710.378906 C 648.597656 710.378906 690.328125 696.234375 722.027344 667.929688 C 726.511719 663.980469 729.992188 659.542969 733.832031 655.308594 C 734.847656 654.300781 735.757812 653.25 736.75 652.195312 Z M 736.75 652.195312 " fill-opacity="1" fill-rule="nonzero"/></g></svg>